<?xml version="1.0" encoding="UTF-8" standalone="no"?>
<!-- Created with Inkscape (http://www.inkscape.org/) -->

<svg
   xmlns:dc="http://purl.org/dc/elements/1.1/"
   xmlns:cc="http://creativecommons.org/ns#"
   xmlns:rdf="http://www.w3.org/1999/02/22-rdf-syntax-ns#"
   xmlns:svg="http://www.w3.org/2000/svg"
   xmlns="http://www.w3.org/2000/svg"
   xmlns:xlink="http://www.w3.org/1999/xlink"
   xmlns:sodipodi="http://sodipodi.sourceforge.net/DTD/sodipodi-0.dtd"
   xmlns:inkscape="http://www.inkscape.org/namespaces/inkscape"
   width="1000"
   height="720"
   id="svg2"
   version="1.1"
   inkscape:version="0.48.2 r9819"
   sodipodi:docname="Battleground Background.svg">
  <defs
     id="defs4">
    <linearGradient
       inkscape:collect="always"
       id="linearGradient3963">
      <stop
         style="stop-color:#ffffff;stop-opacity:1;"
         offset="0"
         id="stop3965" />
      <stop
         style="stop-color:#ffffff;stop-opacity:0;"
         offset="1"
         id="stop3967" />
    </linearGradient>
    <linearGradient
       inkscape:collect="always"
       id="linearGradient3951">
      <stop
         style="stop-color:#ffffff;stop-opacity:1;"
         offset="0"
         id="stop3953" />
      <stop
         style="stop-color:#ffffff;stop-opacity:0;"
         offset="1"
         id="stop3955" />
    </linearGradient>
    <linearGradient
       inkscape:collect="always"
       id="linearGradient3171">
      <stop
         style="stop-color:#374548;stop-opacity:1;"
         offset="0"
         id="stop3173" />
      <stop
         style="stop-color:#374548;stop-opacity:0;"
         offset="1"
         id="stop3175" />
    </linearGradient>
    <linearGradient
       inkscape:collect="always"
       id="linearGradient3153">
      <stop
         style="stop-color:#374548;stop-opacity:1;"
         offset="0"
         id="stop3155" />
      <stop
         style="stop-color:#374548;stop-opacity:0;"
         offset="1"
         id="stop3157" />
    </linearGradient>
    <linearGradient
       inkscape:collect="always"
       id="linearGradient3127">
      <stop
         style="stop-color:#dbe2e3;stop-opacity:1;"
         offset="0"
         id="stop3129" />
      <stop
         style="stop-color:#dbe2e3;stop-opacity:0;"
         offset="1"
         id="stop3131" />
    </linearGradient>
    <linearGradient
       inkscape:collect="always"
       id="linearGradient3109">
      <stop
         style="stop-color:#dbe2e3;stop-opacity:1;"
         offset="0"
         id="stop3111" />
      <stop
         style="stop-color:#dbe2e3;stop-opacity:0;"
         offset="1"
         id="stop3113" />
    </linearGradient>
    <linearGradient
       inkscape:collect="always"
       id="linearGradient3035">
      <stop
         style="stop-color:#ccffaa;stop-opacity:1;"
         offset="0"
         id="stop3037" />
      <stop
         style="stop-color:#ccffaa;stop-opacity:0;"
         offset="1"
         id="stop3039" />
    </linearGradient>
    <linearGradient
       inkscape:collect="always"
       xlink:href="#linearGradient3035"
       id="linearGradient3041"
       x1="486.76727"
       y1="831.98969"
       x2="476.58682"
       y2="628.87158"
       gradientUnits="userSpaceOnUse" />
    <linearGradient
       inkscape:collect="always"
       xlink:href="#linearGradient3109"
       id="linearGradient3115"
       x1="9.6201248"
       y1="883.25012"
       x2="358.08328"
       y2="891.35663"
       gradientUnits="userSpaceOnUse" />
    <linearGradient
       inkscape:collect="always"
       xlink:href="#linearGradient3127"
       id="linearGradient3133"
       x1="1062.7831"
       y1="918.26636"
       x2="569.42615"
       y2="754.84125"
       gradientUnits="userSpaceOnUse" />
    <linearGradient
       inkscape:collect="always"
       xlink:href="#linearGradient3153"
       id="linearGradient3159"
       x1="482.37939"
       y1="1204.2203"
       x2="292.73904"
       y2="856.69623"
       gradientUnits="userSpaceOnUse" />
    <linearGradient
       inkscape:collect="always"
       xlink:href="#linearGradient3171"
       id="linearGradient3177"
       x1="566.26941"
       y1="1235.2313"
       x2="774.81067"
       y2="999.49536"
       gradientUnits="userSpaceOnUse" />
    <radialGradient
       inkscape:collect="always"
       xlink:href="#linearGradient3951"
       id="radialGradient3957"
       cx="510.84665"
       cy="825.00604"
       fx="510.84665"
       fy="825.00604"
       r="540.54107"
       gradientTransform="matrix(1,0,0,0.46355657,-21.11061,239.6513)"
       gradientUnits="userSpaceOnUse" />
    <radialGradient
       inkscape:collect="always"
       xlink:href="#linearGradient3963"
       id="radialGradient3969"
       cx="488.6889"
       cy="835.28687"
       fx="488.6889"
       fy="835.28687"
       r="489.70045"
       gradientTransform="matrix(1.1197615,0.02052749,-0.01046797,0.66802773,-90.378446,110.26083)"
       gradientUnits="userSpaceOnUse" />
  </defs>
  <sodipodi:namedview
     id="base"
     pagecolor="#ffffff"
     bordercolor="#666666"
     borderopacity="1.0"
     inkscape:pageopacity="0.0"
     inkscape:pageshadow="2"
     inkscape:zoom="0.24748737"
     inkscape:cx="378.72986"
     inkscape:cy="249.72959"
     inkscape:document-units="px"
     inkscape:current-layer="layer1"
     showgrid="false"
     inkscape:window-width="1280"
     inkscape:window-height="752"
     inkscape:window-x="0"
     inkscape:window-y="0"
     inkscape:window-maximized="1" />
  <metadata
     id="metadata7">
    <rdf:RDF>
      <cc:Work
         rdf:about="">
        <dc:format>image/svg+xml</dc:format>
        <dc:type
           rdf:resource="http://purl.org/dc/dcmitype/StillImage" />
        <dc:title></dc:title>
      </cc:Work>
    </rdf:RDF>
  </metadata>
  <g
     inkscape:label="Layer 1"
     inkscape:groupmode="layer"
     id="layer1"
     transform="translate(0,-332.36218)">
    <rect
       style="fill:#ffffff;fill-opacity:1;fill-rule:nonzero;stroke:none"
       id="rect3971"
       width="1000"
       height="720"
       x="0"
       y="332.36218"
       inkscape:export-filename="/Users/mack/Dropbox/clases/Progra 2/PopUp Battle Background.png"
       inkscape:export-xdpi="90"
       inkscape:export-ydpi="90" />
    <g
       id="g3053">
      <path
         inkscape:connector-curvature="0"
         id="path3021"
         d="m 628.48961,340.4291 c -5.07302,-0.0123 -10.14583,-0.0124 -15.21875,0.0312 -91.9394,0.79117 -183.73656,7.34336 -275.1875,16.5 -15.27155,2.50049 -30.54462,5.20548 -45.84375,7.53125 -12.55508,1.90862 -25.15192,3.35787 -37.71875,5.1875 -36.23546,5.27559 -72.37302,11.35689 -108.53125,17.125 -27.84556,4.87343 -10.78561,1.74646 -35.6875,6.59375 -5.55067,1.08047 -21.478775,3.20706 -26.718745,6.375 -1.056042,0.63845 -1.666214,1.84025 -2.5,2.75 -20.179501,1.59396 -17.929502,30.12521 2.25,28.53125 1.554409,0.59054 3.015823,1.50936 4.65625,1.78125 1.754059,0.29073 3.827864,0.31685 6.03125,0.21875 -6.776563,7.76018 -11.358115,17.23905 -17.15625,25.78125 8.844043,9.74164 16.213372,21.11214 25.624995,30.21875 -10.853348,2.01212 -24.437764,4.63369 -28.999995,6.09375 -4.694482,1.50239 -13.753543,1.04624 -13.5,5.96875 3.62584,70.39524 -0.35818,64.97998 36.3125,66.15625 -29.146717,6.67179 -86.8166552,15.86587 -54.5625,72.21875 6.723704,11.74732 38.023901,13.25077 64.406245,12.5625 -5.72138,3.00845 -10.407693,7.00721 -12.718745,12.40625 -22.703411,3.84223 -45.322449,8.28507 -67.78125,13.4375 -10.650081,2.45859 -21.1825833,5.21772 -31.6250003,8.4375 -3.046398,0.93931 -11.9949427,3.54323 -14.5937497,5.28125 -5.339182,3.57072 -10.040402,7.99557 -15.0625,12 7.948311,20.45856 12.294318,42.74241 23.84375,61.40625 2.5337237,4.09449 9.6242527,0.60011 14.4374997,0.46875 4.059482,-0.11078 17.5002393,-2.28529 21.1250003,-2.84375 18.119722,-2.79167 9.34342,-1.3195 28.84375,-5.0625 55.110605,-10.40228 110.552225,-18.8185 166.062495,-26.75 92.99702,-11.07315 186.53098,-16.67519 280.03125,-21.34375 90.58777,-4.7135 181.31163,-4.75414 271.96875,-2.59375 30.44782,-0.005 60.83607,1.92593 91.25,2.96875 6.75443,0.2316 13.54421,0.94308 20.28125,0.40625 9.58984,-0.76415 18.53019,-4.23919 27.53125,-7.21875 13.65208,-11.2546 7.33468,-4.02206 17.1875,-23.125 3.28683,0.51873 4.03683,-4.13752 0.75,-4.65625 -4.97358,-21.66636 -0.12511,-12.93576 -12.375,-27.21875 -5.11372,-2.64844 -9.74422,-5.23823 -14.59375,-7.4375 -0.21676,-5.87973 -2.49927,-14.24728 -7,-26.03125 2.99053,-0.1365 5.97824,-0.27039 8.96875,-0.40625 1.16982,-0.0566 45.40268,-1.58062 45.90625,-4.09375 4.618,-23.04669 -3.25237,-47.11014 -8.59375,-70 -0.59576,-2.55307 -5.22322,-0.39175 -7.84375,-0.46875 -11.12103,-0.3267 -25.94911,-0.1246 -36.5,-0.0625 -4.11937,0.0705 -8.22459,0.16997 -12.34375,0.25 4.17714,-21.4157 9.53434,-44.04194 4.9375,-65.21875 13.89314,-4.70742 25.62052,-13.84394 29.875,-32.78125 0.92174,-4.10279 1.05945,-7.7601 0.625,-11.03125 10.13124,0.26366 20.2699,0.44643 30.40625,0.5 21.49923,-3.70174 35.15848,-1.26045 38.4375,-36.28125 2.36632,-25.27298 -39.64955,-31.99315 -55.1875,-35.4375 -8.20978,-1.31934 -16.37585,-2.89223 -24.625,-3.9375 -15.20601,-1.92679 -59.76232,-5.71563 -72.90625,-6.75 -53.48682,-4.20918 -107.06083,-7.30618 -160.71875,-8.09375 -15.21914,-0.0758 -30.43718,-0.30673 -45.65625,-0.34375 z m 310.25,80.125 c 10.58723,3.00678 5.78045,3.9961 0,0 z M 94.239615,561.6791 c -0.592559,1.63901 -7.167993,1.53069 -5.40625,1.15625 2.272347,-0.48297 3.794479,-0.80124 5.40625,-1.15625 z m -83.3125,199.03125 c -0.19933,0.14293 -0.39391,0.29527 -0.59375,0.4375 -0.124385,0.0888 -0.5190368,0.0674 -0.6250003,0.0312 0.00581,-0.004 -0.011963,-0.0269 0,-0.0312 0.4024003,-0.14563 0.8143193,-0.29801 1.2187503,-0.4375 z"
         style="fill:#d7eef4;fill-opacity:1;fill-rule:nonzero;stroke:none" />
      <path
         id="path3007"
         transform="translate(0,332.36218)"
         d="M 522.9375 372 C 436.26909 372.29635 349.44312 375.75595 263.5625 388.09375 C 250.07805 390.21714 236.55174 392.00671 223.125 394.46875 C 199.46226 398.80774 187.07451 402.2482 164.6875 408.34375 C 146.05223 413.41778 127.40178 418.66451 109.59375 426.25 C 105.82854 427.63789 86.618712 434.67234 82.21875 436.46875 C 77.879349 438.24044 68.205132 442.48273 63.90625 445.375 C 61.370947 447.08074 59.473312 449.64688 56.96875 451.40625 C 42.679748 455.88275 49.023498 476.07025 63.3125 471.59375 C 66.653817 471.16317 70.039197 471.90262 73.375 471.5625 C 77.928831 471.09821 88.957932 468.25259 92.84375 467.21875 C 104.06942 464.23211 108.00892 463.13684 108.59375 462.9375 C 106.88369 463.27023 86.839365 468.46083 120.125 459.9375 C 125.6489 458.7793 131.17749 457.69133 136.6875 456.46875 C 149.43726 453.63979 162.06208 450.14986 174.84375 447.46875 C 206.3671 440.85633 238.3755 436.5773 270.21875 431.90625 C 328.43681 423.63537 387.12388 418.95387 445.875 416.84375 C 435.53459 417.9294 425.20865 419.07093 414.875 420.21875 C 371.6815 425.01651 328.57042 430.32832 285.6875 437.4375 C 271.7636 439.74581 257.89583 442.37205 244 444.84375 C 230.72347 447.2604 217.41234 449.56735 204.15625 452.09375 C 183.61762 456.00808 173.4021 458.12674 160.21875 461.03125 C 159.8027 461.10458 159.80418 461.11188 159.375 461.1875 C 140.23863 465.30368 121.09375 469.3858 101.9375 473.40625 C 99.331426 473.9532 93.822177 472.28854 94.09375 474.9375 C 94.118365 475.1776 94.160498 475.41658 94.1875 475.65625 C 91.511792 476.20721 88.839061 476.76143 86.15625 477.28125 C 61.486926 486.00128 65.96485 481.36315 99.65625 532.34375 C 87.097088 535.01398 74.567762 537.71966 62.03125 540.5 C 54.078125 542.48744 46.105703 544.46667 38.15625 546.46875 C 33.723577 547.58513 11.296317 553.06979 5.34375 555.34375 C 1.2090085 556.92328 -6.69487 556.73123 -6.59375 561.15625 C -4.837399 638.01421 -13.041242 630.95289 27.8125 632.5625 C 35.29819 632.04046 42.80755 631.67224 50.28125 631 C 51.929448 630.85175 53.571348 630.68759 55.21875 630.53125 C 38.628453 640.0735 40.733365 656.03701 66.3125 704.46875 C 68.225299 708.09045 107.13802 703.0627 109.5 702.8125 C 188.86958 692.9409 268.40339 684.13355 348.15625 677.96875 C 368.65029 676.38455 389.1501 675.13745 409.65625 673.71875 C 429.47973 672.54225 449.29434 671.2359 469.125 670.1875 C 503.44862 668.3728 546.16909 666.54804 580.59375 665.90625 C 632.10243 664.94596 683.59585 665.85954 735.09375 666.84375 C 780.79139 667.95514 826.51255 669.74912 872.125 672.78125 C 873.3261 673.73965 874.56911 674.63388 875.90625 675.40625 C 881.08429 678.39725 887.40905 678.7457 893.28125 679.875 C 909.6602 683.025 926.3756 682.5788 942.90625 684.1875 C 954.60517 684.6504 966.32149 685.4383 978.03125 685.5625 C 981.41625 685.5983 985.50973 687.571 988.1875 685.5 C 1045.7213 641.00328 1035.5578 655.60026 998.03125 605.5625 C 996.00188 605.10648 993.9859 604.54857 991.9375 604.1875 C 986.5501 603.23786 981.11459 602.71872 975.6875 602.03125 C 967.67551 601.01635 959.65372 600.09159 951.625 599.21875 C 959.34171 581.32682 969.7301 563.89365 970.125 544.6875 C 970.3026 536.0498 956.73379 533.66285 949.34375 529.1875 C 946.57619 527.51148 943.16741 527.26434 940.03125 526.46875 C 926.2924 522.98344 912.18997 521.1449 898.15625 519.34375 C 887.75224 518.3162 859.96485 515.54277 850.71875 514.875 C 846.08491 514.54033 841.45156 514.25455 836.8125 514 C 839.95922 513.86097 843.10322 513.73133 846.25 513.59375 C 847.64043 513.52838 887.81436 512.22408 888.84375 509.84375 C 898.43732 487.66006 900.58791 462.30872 899.6875 438.15625 C 899.5041 433.23667 890.70422 434.06454 885.96875 432.71875 C 885.15857 432.4885 883.63603 432.20187 881.875 431.90625 C 886.42826 429.563 889.97696 425.64856 891.0625 418.90625 C 892.53641 409.75173 883.11837 401.94007 877.1875 394.8125 C 875.46268 392.73965 871.99709 393.32485 869.34375 392.84375 C 864.76016 392.01266 860.1553 391.4391 855.53125 390.875 C 848.49072 390.0161 841.42619 389.32895 834.375 388.5625 C 735.42781 380.11524 888.27301 393.59578 771.125 381.5625 C 757.39579 380.15225 743.64632 379.22404 729.875 378.3125 C 679.57776 374.98324 629.14666 373.11862 578.75 372.3125 C 560.14389 372.21009 541.54379 371.9364 522.9375 372 z M 107.375 527.34375 C 107.44638 527.78246 107.52947 528.2162 107.59375 528.65625 C 107.86401 530.50649 103.92277 529.42372 102.09375 529.8125 C 103.8661 529.01862 105.59402 528.11619 107.375 527.34375 z M 31 626.4375 C 31.004441 626.57753 30.995687 626.70302 31 626.84375 C 31.033147 627.9252 26.832413 627.97824 27.84375 627.59375 C 28.905182 627.19022 29.959586 626.80388 31 626.4375 z M 102.96875 694.71875 C 103.35535 696.28205 101.47923 695.80383 96.0625 697.625 C 98.384017 696.63274 100.73531 695.62999 102.96875 694.71875 z "
         style="fill:#ccffaa;fill-opacity:1;fill-rule:nonzero;stroke:none" />
      <path
         inkscape:connector-curvature="0"
         d="m 71.141722,768.66336 c 51.674108,-20.43935 106.777088,-31.00574 160.963268,-42.49529 82.5926,-16.74388 166.76337,-25.53548 250.92492,-29.10336 17.34181,-0.73517 34.70248,-0.92364 52.05372,-1.38546 82.75016,-1.27404 165.41145,2.84374 247.88548,9.15687 44.41287,3.93177 88.92927,8.22795 132.61784,17.37304 3.90257,1.38861 7.80514,2.77722 11.70771,4.16583 4.22461,0.93 2.90938,6.9045 -1.31523,5.9745 l 0,0 c -4.04687,-0.36137 -8.09374,-0.72275 -12.14062,-1.08412 -43.58622,-7.69523 -87.47203,-13.43197 -131.62322,-16.76461 -82.12885,-6.5204 -164.48,-10.51036 -246.89667,-9.31868 -17.25227,0.39497 -34.51355,0.50192 -51.75682,1.18493 -83.74418,3.31712 -167.49974,11.65352 -249.75721,27.90696 -54.0988,11.21898 -108.09247,23.06678 -160.982448,39.18571 -3.39151,1.18845 -5.07223,-3.60787 -1.68072,-4.79632 z"
         id="path3001"
         style="fill:#bec8b7;fill-opacity:1;fill-rule:nonzero;stroke:none" />
      <path
         style="fill:url(#linearGradient3041);fill-opacity:1;fill-rule:nonzero;stroke:none"
         d="m 628.48961,340.4291 c -5.07302,-0.0123 -10.14583,-0.0124 -15.21875,0.0312 -91.9394,0.79117 -183.73656,7.34336 -275.1875,16.5 -15.27155,2.50049 -30.54462,5.20548 -45.84375,7.53125 -12.55508,1.90862 -25.15192,3.35787 -37.71875,5.1875 -36.23546,5.27559 -72.37302,11.35689 -108.53125,17.125 -27.84556,4.87343 -10.78561,1.74646 -35.6875,6.59375 -5.55067,1.08047 -21.478775,3.20706 -26.718745,6.375 -1.056042,0.63845 -1.666214,1.84025 -2.5,2.75 -20.179501,1.59396 -17.929502,30.12521 2.25,28.53125 1.554409,0.59054 3.015823,1.50936 4.65625,1.78125 1.754059,0.29073 3.827864,0.31685 6.03125,0.21875 -6.776563,7.76018 -11.358115,17.23905 -17.15625,25.78125 8.844043,9.74164 16.213372,21.11214 25.624995,30.21875 -10.853348,2.01212 -24.437764,4.63369 -28.999995,6.09375 -4.694482,1.50239 -13.753543,1.04624 -13.5,5.96875 3.62584,70.39524 -0.35818,64.97998 36.3125,66.15625 -29.146717,6.67179 -86.8166552,15.86587 -54.5625,72.21875 6.723704,11.74732 38.023901,13.25077 64.406245,12.5625 -5.72138,3.00845 -10.407693,7.00721 -12.718745,12.40625 -22.703411,3.84223 -45.322449,8.28507 -67.78125,13.4375 -10.650081,2.45859 -21.1825833,5.21772 -31.6250003,8.4375 -3.046398,0.93931 -11.9949427,3.54323 -14.5937497,5.28125 -5.339182,3.57072 -10.040402,7.99557 -15.0625,12 7.948311,20.45856 12.294318,42.74241 23.84375,61.40625 2.5337237,4.09449 9.6242527,0.60011 14.4374997,0.46875 4.059482,-0.11078 17.5002393,-2.28529 21.1250003,-2.84375 18.119722,-2.79167 9.34342,-1.3195 28.84375,-5.0625 55.110605,-10.40228 110.552225,-18.8185 166.062495,-26.75 92.99702,-11.07315 186.53098,-16.67519 280.03125,-21.34375 90.58777,-4.7135 181.31163,-4.75414 271.96875,-2.59375 30.44782,-0.005 60.83607,1.92593 91.25,2.96875 6.75443,0.2316 13.54421,0.94308 20.28125,0.40625 9.58984,-0.76415 18.53019,-4.23919 27.53125,-7.21875 13.65208,-11.2546 7.33468,-4.02206 17.1875,-23.125 3.28683,0.51873 4.03683,-4.13752 0.75,-4.65625 -4.97358,-21.66636 -0.12511,-12.93576 -12.375,-27.21875 -5.11372,-2.64844 -9.74422,-5.23823 -14.59375,-7.4375 -0.21676,-5.87973 -2.49927,-14.24728 -7,-26.03125 2.99053,-0.1365 5.97824,-0.27039 8.96875,-0.40625 1.16982,-0.0566 45.40268,-1.58062 45.90625,-4.09375 4.618,-23.04669 -3.25237,-47.11014 -8.59375,-70 -0.59576,-2.55307 -5.22322,-0.39175 -7.84375,-0.46875 -11.12103,-0.3267 -25.94911,-0.1246 -36.5,-0.0625 -4.11937,0.0705 -8.22459,0.16997 -12.34375,0.25 4.17714,-21.4157 9.53434,-44.04194 4.9375,-65.21875 13.89314,-4.70742 25.62052,-13.84394 29.875,-32.78125 0.92174,-4.10279 1.05945,-7.7601 0.625,-11.03125 10.13124,0.26366 20.2699,0.44643 30.40625,0.5 21.49923,-3.70174 35.15848,-1.26045 38.4375,-36.28125 2.36632,-25.27298 -39.64955,-31.99315 -55.1875,-35.4375 -8.20978,-1.31934 -16.37585,-2.89223 -24.625,-3.9375 -15.20601,-1.92679 -59.76232,-5.71563 -72.90625,-6.75 -53.48682,-4.20918 -107.06083,-7.30618 -160.71875,-8.09375 -15.21914,-0.0758 -30.43718,-0.30673 -45.65625,-0.34375 z m 310.25,80.125 c 10.58723,3.00678 5.78045,3.9961 0,0 z M 94.239615,561.6791 c -0.592559,1.63901 -7.167993,1.53069 -5.40625,1.15625 2.272347,-0.48297 3.794479,-0.80124 5.40625,-1.15625 z m -83.3125,199.03125 c -0.19933,0.14293 -0.39391,0.29527 -0.59375,0.4375 -0.124385,0.0888 -0.5190368,0.0674 -0.6250003,0.0312 0.00581,-0.004 -0.011963,-0.0269 0,-0.0312 0.4024003,-0.14563 0.8143193,-0.29801 1.2187503,-0.4375 z"
         id="path3025"
         inkscape:connector-curvature="0" />
    </g>
    <path
       style="fill:#b7c4c8;fill-opacity:1;fill-rule:nonzero;stroke:none"
       d="m 336.875,765.64343 c -16.6833,-0.65637 -22.0226,16.67069 -24.7242,29.711 -4.90521,12.67012 0.0335,33.1706 -19.46764,31.54909 -17.83783,0.12993 -14.99876,23.82232 -21.89201,35.66941 -5.30118,17.12435 -10.3279,34.38325 -13.54115,52.03925 -14.68911,1.69692 -14.14367,22.8508 -21.29035,33.30373 -11.55629,30.37825 -24.3728,60.24279 -36.36452,90.44359 -6.7952,16.5778 -10.55943,37.1486 0.46737,52.7839 10.54049,11.3367 23.4583,16.7265 38.375,11.125 0.14608,16.645 25.04851,12.2079 36.39243,18.1437 8.26837,1.8232 19.41234,2.9412 24.32632,-5.6749 0.52484,10.2484 -1.1526,22.2793 13.2304,18.0741 16.27121,0.1156 32.21255,4.0978 48.29372,5.4149 7.17663,-10.8211 0.067,-25.3417 1.8399,-38.7324 -2.56466,-73.3953 -6.32604,-146.84882 -2.92671,-220.28826 0.90803,-26.41423 1.60445,-52.91026 1.2243,-79.3051 0.12527,-15.76311 -4.07809,-34.86971 -23.94286,-34.25701 z M 201.3125,1052.1747 c -1.61057,4.5408 -2.07265,3.315 5e-5,0 l -5e-5,0 z"
       id="path3083"
       inkscape:connector-curvature="0" />
    <path
       style="fill:#b7c4c8;fill-opacity:1;fill-rule:nonzero;stroke:none"
       d="m 281.34375,750.48718 c -59.69546,4.19851 -119.63478,3.27383 -179.29421,8.28088 -38.836592,2.69927 -77.790148,4.68497 -116.463576,9.10205 -18.818585,1.82487 -43.321559,24.78898 -19.908651,39.68763 9.15406,3.61636 25.686572,1.84332 29.635187,8.64819 -25.269382,4.90605 -8.92071,36.9575 -11.485827,55.5201 7.0304746,17.99137 -19.467517,21.72437 -27.659451,34.6877 -21.81176,11.96167 -8.849942,38.20121 0.484564,54.20994 5.302074,21.72217 29.596521,8.04807 40.0165208,13.28287 14.9231182,14.63004 24.8998172,30.84966 13.6176852,51.17336 -12.9321735,22.0105 14.730805,26.2042 29.435379,32.5963 14.32511,0.9238 30.542071,22.3056 42.297402,8.8845 14.062063,-3.6452 33.945797,18.8043 47.233177,14.4947 5.99561,-12.0933 26.86167,1.3964 35.86068,-13.149 23.06099,-24.7489 35.55095,-57.0565 51.69987,-86.35672 19.39576,-36.72094 36.77237,-74.89683 50.12905,-114.05111 16.45451,-23.38033 29.93384,-48.80432 47.8214,-71.15778 11.18578,-16.80996 -0.21297,-41.34563 -20.04225,-44.21176 -4.37964,-1.0211 -8.86816,-1.72279 -13.37695,-1.64185 z M -22.625,901.79968 c -6.728689,4.13911 -12.332192,2.85607 0,0 z M 82.96875,1062.9247 c 0.600776,0.5164 -2.126351,1.7667 0,0 z"
       id="path3087"
       inkscape:connector-curvature="0" />
    <path
       style="fill:url(#radialGradient3969);fill-opacity:1;fill-rule:nonzero;stroke:none"
       d="M 488.75 248.875 C 474.47227 252.87218 465.29138 266.4341 461.2078 279.99331 C 455.71861 298.53275 456.3615 318.09121 453.38317 337.06031 C 447.12915 393.89045 439.57672 450.81844 424.6875 506.125 C 392.20635 438.1897 356.04225 372.04647 325.15625 303.34375 C 314.04163 295.36731 298.11423 298.91701 288.68403 307.90182 C 278.34654 317.04051 274.44638 332.15415 278.10712 345.33344 C 282.60147 365.54362 295.47779 382.88308 298.89903 403.42002 C 307.87749 434.2874 316.05406 465.5035 328.40625 495.25 C 270.57808 429.18246 204.20585 370.91107 149.53125 302.03125 C 130.22545 301.66447 111.12174 317.6637 110.57044 337.44153 C 111.08651 348.94362 118.57269 358.33454 123.49539 368.27797 C 157.80523 429.48464 206.35301 480.7279 249.65137 535.43411 C 259.16008 547.30113 268.63816 559.19345 277.90625 571.25 C 189.47394 531.30851 113.44841 468.34807 23.607969 431.18638 C 9.0483094 425.45668 -5.4935855 419.15657 -20.915377 416.17883 C -32.753998 415.306 -42.722278 424.75852 -47.043981 435.06095 C -52.344351 447.46756 -48.777411 462.49186 -39.444945 472.00615 C -27.496498 485.01341 -11.153139 492.53146 2.8292572 502.99276 C 34.876972 525.93922 67.308384 548.36265 100.2159 570.06183 C 127.32478 587.86609 154.89832 604.98064 183.15625 620.90625 C 112.04586 619.01175 41.083855 625.4542 -29.65625 631.875 C -35.313498 646.74022 -35.907616 665.015 -25.939365 678.23314 C -21.24169 684.60629 -13.257789 686.89892 -5.7976552 688.03837 C 35.534757 696.60664 77.821504 698.51744 119.59686 703.99178 C 132.0622 705.51048 144.50312 707.24923 156.875 709.40625 C 84.560793 715.56119 12.461847 725.22381 -58.5 740.59375 C -60.945355 753.43602 -63.420705 767.75932 -56.625 779.75 C -54.468983 784.25099 -49.807421 788.70287 -44.428433 787.02195 C -18.145928 784.39576 7.4615882 777.50192 33.618926 774.00231 C 111.02677 762.13112 189.66737 762.25225 267.18321 751.29451 C 311.96609 745.36393 356.35246 735.9799 399.37569 722.14572 C 411.62948 720.08101 424.62675 724.39113 436.38742 719.20267 C 446.44369 716.28894 456.99622 716.59484 467.33749 716.72341 C 487.59114 715.55939 508.08035 709.82603 528.27848 714.66424 C 542.68974 717.46378 557.51076 719.3016 572.14133 717.19511 C 586.19423 716.72063 601.15192 720.20966 611.51303 730.22487 C 626.365 740.20374 639.22169 753.47205 655.87014 760.55244 C 674.80217 765.03567 694.31121 760.55953 713.45405 762.63608 C 743.67805 762.99289 774.38859 763.76024 803.9375 756.34375 C 812.77137 745.20907 824.50152 734.44644 839.31652 733.14806 C 850.37259 732.89696 860.55315 738.26537 871.51466 738.96228 C 890.85429 741.80107 911.89408 740.89718 928.89817 730.25928 C 940.05121 723.46168 946.6683 710.35049 945.87922 697.35453 C 945.50817 682.68362 936.95968 667.15575 922.35688 662.60394 C 909.91226 658.89481 895.61695 662.78784 884.28125 655.25 C 883.3985 654.82358 880.62473 653.19788 882.35199 652.60169 C 903.96896 653.18254 926.80763 642.68386 937.17368 623.08396 C 943.96532 610.16154 941.57601 593.30341 931.59872 582.6701 C 920.53607 569.88309 902.74138 564.33806 886.20713 566.27691 C 850.70963 564.65375 815.34921 561.01706 779.9375 558.1875 C 849.40543 531.5196 924.66692 522.78725 992.65863 491.8941 C 1004.5751 486.15632 1016.9191 480.83702 1027.4819 472.7659 C 1036.6938 463.93273 1036.9057 449.27159 1032.2448 438.1059 C 1026.9747 424.64264 1013.6066 414.86577 999.11752 414.25225 C 982.32462 413.79784 966.23977 419.64268 950.40625 424.5 C 925.12176 432.70573 899.25436 438.93301 873.59479 445.83003 C 849.39051 452.10382 825.34941 458.97676 801.43007 466.25626 C 771.06564 475.24577 740.86581 484.80355 710.9375 495.15625 C 769.35837 450.3854 832.60993 412.3914 891.125 367.75 C 892.57653 349.89732 886.43889 330.2035 871.26054 319.60425 C 864.43816 314.71066 855.23475 313.88172 847.53125 317.09375 C 827.37149 323.44196 812.93076 339.66596 796.30086 351.77582 C 775.8157 366.5289 752.88049 377.38905 731.98367 391.51572 C 690.62675 418.50637 651.03453 448.06253 610.65625 476.46875 C 626.59116 426.59555 658.2416 383.07726 671.13133 332.08194 C 674.10083 319.16675 677.19107 305.84658 675.69145 292.53094 C 672.5294 277.22628 656.53836 267.27986 641.5 267.53125 C 631.53367 267.59111 622.14826 272.70728 615.94116 280.37723 C 606.37771 291.41411 600.8521 305.14372 592.98776 317.32305 C 564.90906 365.15331 539.52134 414.50338 511.40625 462.3125 C 512.73062 398.81515 524.84532 335.64215 520.1875 272.03125 C 519.26411 268.56349 515.40195 267.08597 513.5458 264.15918 C 507.21072 257.20924 499.97078 248.95287 489.78125 248.84375 C 489.4375 248.85417 489.09375 248.86458 488.75 248.875 z M 663.1875 321.15625 C 663.1757 321.38565 663.04213 321.14483 663.1875 321.15625 z M 1014.9062 485.09375 C 1014.2999 484.9927 1014.0918 484.95801 1014.9062 485.09375 z "
       id="path3959"
       inkscape:connector-curvature="0" />
    <path
       style="fill:#93a7ac;fill-opacity:1;fill-rule:nonzero;stroke:none"
       d="M 349.71875 417.125 C 345.06308 417.06489 339.36201 418.4705 335.6875 418.53125 C 313.14634 421.33333 290.37206 421.83328 267.75 423.75 C 255.04779 424.5585 242.36239 425.56824 229.65625 426.3125 C 198.78325 428.12087 167.84148 428.43664 136.9375 429.40625 C 95.538028 430.62985 54.14248 431.64218 12.75 433.09375 C 0.94663536 433.39146 -10.855087 433.75004 -22.65625 434.09375 C -26.45071 434.20426 -30.315238 433.73699 -34.0625 434.34375 C -35.017381 434.49836 -35.846767 435.02877 -36.75 435.375 C -42.293357 434.82265 -43.074607 442.6664 -37.53125 443.21875 C -36.585117 443.68247 -35.709767 444.33846 -34.6875 444.59375 C -32.773499 445.07175 -23.895948 445.4591 -22.875 445.5 C -10.885045 445.98081 1.0401787 445.6146 13.03125 445.3125 C 54.437657 444.19174 95.838744 442.88277 137.25 441.9375 C 180.96184 440.45068 224.721 439.76185 268.4375 438.53125 C 289.24504 438.29439 310.03339 436.7038 330.84375 436.78125 C 329.93437 437.72729 328.01316 439.70072 327.875 439.84375 C 317.19455 451.50315 307.03779 463.6765 298.03125 476.6875 C 291.14601 486.63402 285.46233 496.02875 279.0625 506.3125 C 255.61827 545.74245 236.91206 587.74602 217.25 629.125 C 213.09099 638.08781 202.81803 660.17347 198.59375 669.59375 C 193.72545 680.45018 188.55193 690.69293 186.5625 702.5625 C 185.76538 707.31841 186.18782 712.21266 186 717.03125 C 184.25093 721.35194 190.37592 723.82068 192.125 719.5 C 195.2988 716.01447 198.84538 712.83857 201.625 709.03125 C 208.62424 699.4442 212.6845 688.99711 217.59375 678.28125 C 228.98777 653.41049 224.14358 663.92403 236.1875 637.96875 C 254.98277 597.03815 273.64057 555.914 296.3125 516.9375 C 309.92729 494.5885 323.86199 472.25802 342.25 453.4375 C 343.31283 452.29016 344.39662 451.16528 345.46875 450.03125 C 345.51662 463.12957 345.80307 476.22303 346.09375 489.3125 C 347.23207 532.76016 349.34398 576.17946 351.34375 619.59375 C 353.08111 653.54854 354.09434 687.53644 356.25 721.46875 C 357.17542 734.32596 357.81624 747.21122 358.25 760.09375 C 358.57054 765.0772 357.0085 764.24954 361.21875 767.1875 C 361.57295 775.02411 372.66669 774.5241 372.3125 766.6875 C 376.37754 763.6852 374.73805 764.4527 374.78125 759.53125 C 374.34554 746.59402 373.93584 733.66307 373.75 720.71875 C 372.95769 686.71074 370.8924 652.73606 369.5 618.75 C 367.50461 575.43075 365.51071 532.12434 364.09375 488.78125 C 363.47297 472.45525 363.39511 467.50425 362.40625 451.96875 C 362.02438 445.96951 361.77163 439.80926 360.75 433.8125 C 361.29469 432.95538 361.67357 432.11565 361.6875 431.40625 C 361.76187 427.61915 359.81208 424.07635 358.875 420.40625 C 357.2234 419.53518 355.65416 418.43803 353.90625 417.78125 C 352.70346 417.32931 351.27064 417.14504 349.71875 417.125 z "
       transform="translate(0,332.36218)"
       id="path3071" />
    <path
       style="fill:#b7c4c8;fill-opacity:1;fill-rule:nonzero;stroke:none"
       d="m 612.5,776.08093 c -17.49724,3.45191 -15.53106,27.04071 -18.82157,41.48882 3.52405,10.25632 -4.05488,19.88318 -5.27213,25.35483 8.71187,11.0207 2.3739,26.18059 3.45278,39.18451 -5.27099,24.96794 -6.18135,50.70004 -7.90302,76.14812 -3.00909,49.88599 -6.53278,100.15359 -3.86231,149.97989 -0.85336,21.8666 21.79423,0.7169 32.54521,0.6248 8.9231,-6.149 32.86415,0.6949 27.39229,-15.5936 13.17275,1.8596 32.05293,7.5938 39.9221,-7.2427 4.41851,-19.0283 20.70994,-1.9579 31.88234,2.2766 13.52073,5.9301 25.50349,13.3509 31.57056,27.4349 6.12005,11.2024 17.31346,23.1683 31.43833,19.4594 13.75946,-3.4219 26.72775,-10.7411 37.56409,-19.7066 11.7299,-12.6946 19.19871,-32.7256 7.87995,-48.4203 -20.32894,-39.1286 -51.27728,-71.0665 -76.36373,-107.01063 -14.65286,-19.42832 -29.50658,-38.80649 -39.71673,-61.04275 -8.00399,-16.23361 -17.7039,-31.53337 -30.27066,-44.62289 -11.49078,-17.11872 -21.8852,-35.24202 -34.9538,-51.16954 -14.79906,-0.0555 -10.04299,-26.68548 -26.4837,-27.14286 z"
       id="path3091"
       inkscape:connector-curvature="0" />
    <path
       style="fill:#b7c4c8;fill-opacity:1;fill-rule:nonzero;stroke:none"
       d="m 967.59375,733.89343 c -76.11786,6.63753 -152.55172,9.34539 -228.77875,14.66127 -29.04248,0.99799 -58.35224,-0.0957 -87.15875,4.08873 -13.23517,1.3938 -40.98541,-1.66939 -33.61579,22.71461 7.43339,16.19564 0.0429,40.89828 20.28226,52.43737 18.67486,9.71217 34.32482,22.25863 44.44615,41.01896 48.08992,61.45388 100.19764,120.23441 140.54358,187.29773 13.92631,17.5665 23.83498,36.009 41.71602,49.375 16.29315,-7.262 32.91068,-25.3303 45.92358,-32.7601 14.47064,7.4009 35.25719,12.7409 46.26007,-3.2094 11.83906,-14.3472 18.5069,-26.3124 38.49912,-24.6399 15.00036,-10.7018 15.35686,-31.944 21.60126,-47.73432 17.8113,-3.24566 32.2011,-21.79123 30.9076,-39.58485 5.7108,-7.48607 36.3848,1.06868 32.5843,-22.03455 5.9819,-18.57178 14.5751,-51.26611 -14.4986,-53.85279 -15.2385,-6.36985 -48.2885,3.12766 -35.0247,-22.37156 14.9267,-1.13206 34.3677,0.0383 28.3323,-20.80213 -1.6889,-20.10426 14.0366,-61.95727 -20.701,-53.94057 -12.4754,-1.67966 -36.3503,5.56847 -26.4434,-14.81322 8.2863,-21.26084 -6.4039,-33.44237 -26.4355,-32.50209 -6.36585,-0.31917 -12.00925,-3.69249 -18.43975,-3.34819 z M 845.75,1085.4872 c -0.67678,-1.1292 0.24779,0.933 0,0 z M 988.78125,747.79968 c 9.47342,3.81166 19.20175,33.13398 7.87251,14.62894 -2.62539,-4.87565 -5.25259,-9.75034 -7.87251,-14.62894 z m -349.46875,10.4375 c -0.39024,0.8397 -3.9683,3.47304 0,0 z"
       id="path3095"
       inkscape:connector-curvature="0" />
    <path
       style="fill:#93a7ac;fill-opacity:1;fill-rule:nonzero;stroke:none"
       d="M 1003.25 397.0625 C 995.70913 397.04338 988.1288 398.02173 980.65625 398.71875 C 943.79305 402.41714 906.89875 405.73736 869.9375 408.28125 C 825.91637 410.94943 781.86518 413.08826 737.8125 415.15625 C 709.25115 416.36037 680.68333 417.74581 652.09375 418 C 641.57624 418.04158 631.04338 418.00303 620.53125 417.59375 C 613.7996 417.55887 608.69528 419.82562 606.96875 427.15625 C 606.68343 428.36772 606.68566 429.62197 606.6875 430.875 C 604.05187 430.41616 601.04616 432.12637 601.1875 435.90625 C 599.05838 444.72157 597.497 453.66258 595.9375 462.59375 C 591.47045 488.05408 585.52698 513.24215 580.34375 538.5625 C 572.78628 573.64698 570.00765 609.45846 568.09375 645.21875 C 567.35596 661.19626 566.9347 677.19216 567.0625 693.1875 C 567.09947 697.81584 567.0554 702.44301 567.34375 707.0625 C 567.94562 716.70436 568.90903 720.40203 570.65625 729.5625 C 571.53044 734.95343 571.80067 739.65095 574.34375 744.5625 C 575.22867 746.27159 576.65177 747.65231 577.8125 749.1875 C 578.57125 754.01693 585.41499 752.92318 584.65625 748.09375 C 585.32303 746.48492 586.21822 744.96679 586.65625 743.28125 C 587.93515 738.35997 587.6305 733.60219 587.6875 728.5625 C 588.37567 719.74721 588.8191 715.77084 588.875 706.65625 C 588.90245 702.17916 588.662 697.69577 588.625 693.21875 C 588.49591 677.59274 588.8749 661.95244 589.59375 646.34375 C 591.4493 611.55318 593.67684 576.69155 600.21875 542.40625 C 604.97071 516.49606 610.4505 490.62562 612.90625 464.375 C 613.08394 459.74513 613.23984 455.03339 613.03125 450.375 C 614.78234 453.72146 616.56629 456.89052 617.625 458.6875 C 627.91274 476.14914 640.23021 492.11654 652.4375 508.25 C 674.60321 536.90558 697.5823 564.90848 719.46875 593.78125 C 733.88761 612.80271 735.17166 614.87017 748.8125 634 C 771.51926 665.68242 790.11604 699.93869 809.25 733.8125 C 812.76301 739.60709 818.07406 748.75841 822.3125 754.3125 C 824.26011 756.86467 826.56894 759.15036 828.6875 761.5625 C 832.33565 768.63537 842.33566 763.47911 838.6875 756.40625 C 837.9458 753.27303 837.4314 750.07253 836.46875 747 C 834.1482 739.59336 830.11038 731.29159 826.96875 724.3125 C 808.87856 688.87162 788.4044 654.62432 765.5625 622.03125 C 734.74703 578.83228 701.84746 537.25964 668.53125 495.96875 C 657.31424 481.36332 652.63869 475.78493 642.84375 461.15625 C 637.64225 453.38784 634.37766 447.64941 629.96875 439.71875 C 628.72569 437.48275 627.62539 435.19573 626.3125 433 C 625.8395 432.20894 625.27146 431.45786 624.71875 430.71875 C 633.91087 430.68115 643.12197 431.01522 652.3125 430.6875 C 681.01846 429.97019 709.72374 429.04775 738.40625 427.65625 C 782.5506 425.5839 826.69087 423.47592 870.8125 420.96875 C 907.87712 418.41606 944.86629 415.10159 981.8125 411.1875 C 992.48978 410.19065 1003.3991 409.8422 1013.8125 407.125 C 1020.4025 406.89249 1020.0899 397.57999 1013.5 397.8125 C 1010.1003 397.28097 1006.6777 397.07119 1003.25 397.0625 z "
       transform="translate(0,332.36218)"
       id="path3073" />
    <path
       inkscape:connector-curvature="0"
       id="path3099"
       d="m 281.34375,750.48718 c -59.69546,4.19851 -119.63478,3.27383 -179.29421,8.28088 -38.836592,2.69927 -77.790148,4.68497 -116.463576,9.10205 -18.818585,1.82487 -43.321559,24.78898 -19.908651,39.68763 9.15406,3.61636 25.686572,1.84332 29.635187,8.64819 -25.269382,4.90605 -8.92071,36.9575 -11.485827,55.5201 7.0304746,17.99137 -19.467517,21.72437 -27.659451,34.6877 -21.81176,11.96167 -8.849942,38.20121 0.484564,54.20994 5.302074,21.72217 29.596521,8.04807 40.0165208,13.28287 14.9231182,14.63004 24.8998172,30.84966 13.6176852,51.17336 -12.9321735,22.0105 14.730805,26.2042 29.435379,32.5963 14.32511,0.9238 30.542071,22.3056 42.297402,8.8845 14.062063,-3.6452 33.945797,18.8043 47.233177,14.4947 5.99561,-12.0933 26.86167,1.3964 35.86068,-13.149 23.06099,-24.7489 35.55095,-57.0565 51.69987,-86.35672 19.39576,-36.72094 36.77237,-74.89683 50.12905,-114.05111 16.45451,-23.38033 29.93384,-48.80432 47.8214,-71.15778 11.18578,-16.80996 -0.21297,-41.34563 -20.04225,-44.21176 -4.37964,-1.0211 -8.86816,-1.72279 -13.37695,-1.64185 z M -22.625,901.79968 c -6.728689,4.13911 -12.332192,2.85607 0,0 z M 82.96875,1062.9247 c 0.600776,0.5164 -2.126351,1.7667 0,0 z"
       style="fill:url(#linearGradient3115);fill-opacity:1;fill-rule:nonzero;stroke:none" />
    <path
       inkscape:connector-curvature="0"
       id="path3117"
       d="m 967.59375,733.89343 c -76.11786,6.63753 -152.55172,9.34539 -228.77875,14.66127 -29.04248,0.99799 -58.35224,-0.0957 -87.15875,4.08873 -13.23517,1.3938 -40.98541,-1.66939 -33.61579,22.71461 7.43339,16.19564 0.0429,40.89828 20.28226,52.43737 18.67486,9.71217 34.32482,22.25863 44.44615,41.01896 48.08992,61.45388 100.19764,120.23441 140.54358,187.29773 13.92631,17.5665 23.83498,36.009 41.71602,49.375 16.29315,-7.262 32.91068,-25.3303 45.92358,-32.7601 14.47064,7.4009 35.25719,12.7409 46.26007,-3.2094 11.83906,-14.3472 18.5069,-26.3124 38.49912,-24.6399 15.00036,-10.7018 15.35686,-31.944 21.60126,-47.73432 17.8113,-3.24566 32.2011,-21.79123 30.9076,-39.58485 5.7108,-7.48607 36.3848,1.06868 32.5843,-22.03455 5.9819,-18.57178 14.5751,-51.26611 -14.4986,-53.85279 -15.2385,-6.36985 -48.2885,3.12766 -35.0247,-22.37156 14.9267,-1.13206 34.3677,0.0383 28.3323,-20.80213 -1.6889,-20.10426 14.0366,-61.95727 -20.701,-53.94057 -12.4754,-1.67966 -36.3503,5.56847 -26.4434,-14.81322 8.2863,-21.26084 -6.4039,-33.44237 -26.4355,-32.50209 -6.36585,-0.31917 -12.00925,-3.69249 -18.43975,-3.34819 z M 845.75,1085.4872 c -0.67678,-1.1292 0.24779,0.933 0,0 z M 988.78125,747.79968 c 9.47342,3.81166 19.20175,33.13398 7.87251,14.62894 -2.62539,-4.87565 -5.25259,-9.75034 -7.87251,-14.62894 z m -349.46875,10.4375 c -0.39024,0.8397 -3.9683,3.47304 0,0 z"
       style="fill:url(#linearGradient3133);fill-opacity:1;fill-rule:nonzero;stroke:none" />
    <path
       inkscape:connector-curvature="0"
       id="path3135"
       d="m 336.875,765.64343 c -16.6833,-0.65637 -22.0226,16.67069 -24.7242,29.711 -4.90521,12.67012 0.0335,33.1706 -19.46764,31.54909 -17.83783,0.12993 -14.99876,23.82232 -21.89201,35.66941 -5.30118,17.12435 -10.3279,34.38325 -13.54115,52.03925 -14.68911,1.69692 -14.14367,22.8508 -21.29035,33.30373 -11.55629,30.37825 -24.3728,60.24279 -36.36452,90.44359 -6.7952,16.5778 -10.55943,37.1486 0.46737,52.7839 10.54049,11.3367 23.4583,16.7265 38.375,11.125 0.14608,16.645 25.04851,12.2079 36.39243,18.1437 8.26837,1.8232 19.41234,2.9412 24.32632,-5.6749 0.52484,10.2484 -1.1526,22.2793 13.2304,18.0741 16.27121,0.1156 32.21255,4.0978 48.29372,5.4149 7.17663,-10.8211 0.067,-25.3417 1.8399,-38.7324 -2.56466,-73.3953 -6.32604,-146.84882 -2.92671,-220.28826 0.90803,-26.41423 1.60445,-52.91026 1.2243,-79.3051 0.12527,-15.76311 -4.07809,-34.86971 -23.94286,-34.25701 z M 201.3125,1052.1747 c -1.61057,4.5408 -2.07265,3.315 5e-5,0 l -5e-5,0 z"
       style="fill:url(#linearGradient3159);fill-opacity:1;fill-rule:nonzero;stroke:none" />
    <path
       inkscape:connector-curvature="0"
       id="path3161"
       d="m 612.5,776.08093 c -17.49724,3.45191 -15.53106,27.04071 -18.82157,41.48882 3.52405,10.25632 -4.05488,19.88318 -5.27213,25.35483 8.71187,11.0207 2.3739,26.18059 3.45278,39.18451 -5.27099,24.96794 -6.18135,50.70004 -7.90302,76.14812 -3.00909,49.88599 -6.53278,100.15359 -3.86231,149.97989 -0.85336,21.8666 21.79423,0.7169 32.54521,0.6248 8.9231,-6.149 32.86415,0.6949 27.39229,-15.5936 13.17275,1.8596 32.05293,7.5938 39.9221,-7.2427 4.41851,-19.0283 20.70994,-1.9579 31.88234,2.2766 13.52073,5.9301 25.50349,13.3509 31.57056,27.4349 6.12005,11.2024 17.31346,23.1683 31.43833,19.4594 13.75946,-3.4219 26.72775,-10.7411 37.56409,-19.7066 11.7299,-12.6946 19.19871,-32.7256 7.87995,-48.4203 -20.32894,-39.1286 -51.27728,-71.0665 -76.36373,-107.01063 -14.65286,-19.42832 -29.50658,-38.80649 -39.71673,-61.04275 -8.00399,-16.23361 -17.7039,-31.53337 -30.27066,-44.62289 -11.49078,-17.11872 -21.8852,-35.24202 -34.9538,-51.16954 -14.79906,-0.0555 -10.04299,-26.68548 -26.4837,-27.14286 z"
       style="fill:url(#linearGradient3177);fill-opacity:1;fill-rule:nonzero;stroke:none" />
  </g>
</svg>
